<svg xmlns="http://www.w3.org/2000/svg" width="1024" height="1024" viewBox="0 0 1024 1024"><path d="M0 0h1024v1024H0Z"/><path fill="#fff" d="m706.56 671.573-68.693-116.906-26.027-44.8c-9.387-16.213-14.507-34.987-14.507-53.76v-157.44h21.333c11.947 0 21.333-9.387 21.333-21.333s-9.387-21.333-21.333-21.333H405.333c-11.947 0-21.333 9.387-21.333 21.333s9.387 21.333 21.333 21.333h21.333v157.44c0 18.773-5.12 37.547-14.507 53.76l-26.026 44.8-68.693 116.907c-24.747 42.667 5.973 96.427 55.467 96.427h278.187c49.493 0 80.213-53.76 55.467-96.427m-55.468 53.759H372.907c-16.64 0-26.88-17.92-18.347-32l55.893-96 24.747-42.667 13.653-23.467a145.07 145.07 0 0 0 20.48-75.093V298.667h85.333v157.44c0 26.453 6.827 52.48 20.48 75.093l13.653 23.467 24.747 42.667 55.893 96c8.107 14.08-2.133 32-18.347 32"/><path fill="#ff1f4b" d="M651.093 725.333H372.907c-16.64 0-26.88-17.92-18.347-32l55.893-96 24.747-42.667h153.6l24.747 42.667 55.893 96c8.107 14.08-2.133 32-18.347 32"/></svg>